# Blender v2.65 (sub 0) OBJ File: ''
# www.blender.org
mtllib box.mtl
o Box01
v -4.559051 0.000000 4.518918
v 4.598756 0.000000 4.518918
v -4.559051 0.000000 -4.638889
v 4.598756 0.000000 -4.638889
v -4.559051 9.157806 4.518918
v 4.598756 9.157806 4.518918
v -4.559051 9.157806 -4.638889
v 4.598756 9.157806 -4.638889
v -3.468980 0.000000 3.428848
v -3.468980 0.000000 -3.548819
v 3.508686 0.000000 -3.548819
v 3.508686 0.000000 3.428848
v -3.468980 9.157806 3.428848
v 3.508686 9.157806 3.428848
v 3.508686 9.157806 -3.548819
v -3.468980 9.157806 -3.548819
v -3.468980 1.090070 4.518918
v 3.508686 1.090070 4.518918
v 3.508686 8.067737 4.518918
v -3.468980 8.067737 4.518918
v 4.598756 1.090070 3.428848
v 4.598756 1.090070 -3.548819
v 4.598756 8.067737 -3.548819
v 4.598756 8.067737 3.428848
v 3.508686 1.090070 -4.638889
v -3.468980 1.090070 -4.638889
v -3.468980 8.067737 -4.638889
v 3.508686 8.067737 -4.638889
v -4.559051 1.090070 -3.548819
v -4.559051 1.090070 3.428848
v -4.559051 8.067737 3.428848
v -4.559051 8.067737 -3.548819
v -3.468980 0.360400 3.428848
v -3.468980 0.360400 -3.548819
v 3.508686 0.360400 -3.548819
v 3.508686 0.360400 3.428848
v -3.468980 8.797407 3.428848
v 3.508686 8.797407 3.428848
v 3.508686 8.797407 -3.548819
v -3.468980 8.797407 -3.548819
v -3.468980 1.090070 4.158518
v 3.508686 1.090070 4.158518
v 3.508686 8.067737 4.158518
v -3.468980 8.067737 4.158518
v 4.238356 1.090070 3.428848
v 4.238356 1.090070 -3.548819
v 4.238356 8.067737 -3.548819
v 4.238356 8.067737 3.428848
v 3.508686 1.090070 -4.278489
v -3.468980 1.090070 -4.278489
v -3.468980 8.067737 -4.278489
v 3.508686 8.067737 -4.278489
v -4.198651 1.090070 -3.548819
v -4.198651 1.090070 3.428848
v -4.198651 8.067737 3.428848
v -4.198651 8.067737 -3.548819
v -4.058278 0.443371 3.144046
v -3.153070 0.443371 4.063143
v 3.226601 0.443371 -4.030735
v 4.131808 0.443371 -3.111638
v -4.058278 0.060634 3.144046
v -3.153070 0.060634 4.063143
v 3.226601 0.060634 -4.030735
v 4.131808 0.060634 -3.111638
v -4.085040 0.371536 3.144047
v -4.085040 1.276743 4.063144
v -4.085040 7.656414 -4.030736
v -4.085040 8.561622 -3.111639
v -4.467777 0.371536 3.144047
v -4.467777 1.276743 4.063144
v -4.467777 7.656414 -4.030736
v -4.467777 8.561622 -3.111639
v 3.203162 0.371536 4.031387
v 4.122260 1.276743 4.031387
v -3.971621 7.656414 4.031388
v -3.052524 8.561622 4.031388
v 3.203162 0.371536 4.414124
v 4.122260 1.276743 4.414124
v -3.971621 7.656414 4.414125
v -3.052524 8.561622 4.414125
v -3.221766 0.400854 -4.150111
v -4.140863 1.306061 -4.150111
v 3.953017 7.685731 -4.150113
v 3.033920 8.590939 -4.150113
v -3.221766 0.400854 -4.532848
v -4.140863 1.306061 -4.532848
v 3.953017 7.685731 -4.532850
v 3.033920 8.590939 -4.532849
v 4.066437 0.400854 -3.262772
v 4.066437 1.306061 -4.181869
v 4.066437 7.685731 3.912012
v 4.066437 8.590939 2.992915
v 4.449173 0.400854 -3.262772
v 4.449173 1.306061 -4.181869
v 4.449174 7.685731 3.912012
v 4.449174 8.590939 2.992915
v 4.131808 8.632133 3.144046
v 3.226602 8.632133 4.063143
v -3.153071 8.632133 -4.030735
v -4.058278 8.632133 -3.111637
v 4.131808 9.014871 3.144046
v 3.226602 9.014871 4.063143
v -3.153071 9.014871 -4.030735
v -4.058278 9.014871 -3.111637
v -4.559051 0.000000 4.518918
v -4.559051 0.000000 4.518918
v 4.598756 0.000000 4.518918
v 4.598756 0.000000 4.518918
v 4.598756 0.000000 4.518918
v 4.598756 9.157806 4.518918
v 4.598756 9.157806 4.518918
v 4.598756 9.157806 4.518918
v -4.559051 9.157806 4.518918
v -4.559051 9.157806 4.518918
v -4.559051 9.157806 4.518918
v -4.559051 0.000000 4.518918
v 4.598756 0.000000 4.518918
v 4.598756 0.000000 4.518918
v 4.598756 0.000000 -4.638889
v 4.598756 0.000000 -4.638889
v 4.598756 0.000000 -4.638889
v 4.598756 9.157806 -4.638889
v 4.598756 9.157806 -4.638889
v 4.598756 9.157806 -4.638889
v 4.598756 9.157806 4.518918
v 4.598756 9.157806 4.518918
v 4.598756 9.157806 4.518918
v 4.598756 0.000000 4.518918
v 4.598756 0.000000 -4.638889
v 4.598756 0.000000 -4.638889
v -4.559051 0.000000 -4.638889
v -4.559051 0.000000 -4.638889
v -4.559051 0.000000 -4.638889
v -4.559051 9.157806 -4.638889
v -4.559051 9.157806 -4.638889
v -4.559051 9.157806 -4.638889
v 4.598756 9.157806 -4.638889
v 4.598756 9.157806 -4.638889
v 4.598756 9.157806 -4.638889
v 4.598756 0.000000 -4.638889
v -4.559051 0.000000 -4.638889
v -4.559051 0.000000 -4.638889
v -4.559051 0.000000 4.518918
v -4.559051 0.000000 4.518918
v -4.559051 0.000000 4.518918
v -4.559051 9.157806 4.518918
v -4.559051 9.157806 4.518918
v -4.559051 9.157806 4.518918
v -4.559051 9.157806 -4.638889
v -4.559051 9.157806 -4.638889
v -4.559051 9.157806 -4.638889
v -4.559051 0.000000 -4.638889
v -3.468980 0.360400 -3.548819
v -3.468980 0.360400 3.428848
v -3.468980 0.000000 3.428848
v -3.468980 0.000000 3.428848
v -3.468980 0.000000 -3.548819
v -3.468980 0.360400 -3.548819
v 3.508686 0.360400 -3.548819
v -3.468980 0.360400 -3.548819
v -3.468980 0.000000 -3.548819
v -3.468980 0.000000 -3.548819
v 3.508686 0.000000 -3.548819
v 3.508686 0.360400 -3.548819
v 3.508686 0.360400 3.428848
v 3.508686 0.360400 -3.548819
v 3.508686 0.000000 -3.548819
v 3.508686 0.000000 -3.548819
v 3.508686 0.000000 3.428848
v 3.508686 0.360400 3.428848
v -3.468980 0.360400 3.428848
v 3.508686 0.360400 3.428848
v 3.508686 0.000000 3.428848
v 3.508686 0.000000 3.428848
v -3.468980 0.000000 3.428848
v -3.468980 0.360400 3.428848
v 3.508686 8.797407 3.428848
v -3.468980 8.797407 3.428848
v -3.468980 9.157806 3.428848
v -3.468980 9.157806 3.428848
v 3.508686 9.157806 3.428848
v 3.508686 8.797407 3.428848
v 3.508686 8.797407 -3.548819
v 3.508686 8.797407 3.428848
v 3.508686 9.157806 3.428848
v 3.508686 9.157806 3.428848
v 3.508686 9.157806 -3.548819
v 3.508686 8.797407 -3.548819
v -3.468980 8.797407 -3.548819
v 3.508686 8.797407 -3.548819
v 3.508686 9.157806 -3.548819
v 3.508686 9.157806 -3.548819
v -3.468980 9.157806 -3.548819
v -3.468980 8.797407 -3.548819
v -3.468980 8.797407 3.428848
v -3.468980 8.797407 -3.548819
v -3.468980 9.157806 -3.548819
v -3.468980 9.157806 -3.548819
v -3.468980 9.157806 3.428848
v -3.468980 8.797407 3.428848
v 3.508686 1.090070 4.158518
v -3.468980 1.090070 4.158518
v -3.468980 1.090070 4.518918
v -3.468980 1.090070 4.518918
v 3.508686 1.090070 4.518918
v 3.508686 1.090070 4.158518
v 3.508686 8.067737 4.158518
v 3.508686 1.090070 4.158518
v 3.508686 1.090070 4.518918
v 3.508686 1.090070 4.518918
v 3.508686 8.067737 4.518918
v 3.508686 8.067737 4.158518
v -3.468980 8.067737 4.158518
v 3.508686 8.067737 4.158518
v 3.508686 8.067737 4.518918
v 3.508686 8.067737 4.518918
v -3.468980 8.067737 4.518918
v -3.468980 8.067737 4.158518
v -3.468980 1.090070 4.158518
v -3.468980 8.067737 4.158518
v -3.468980 8.067737 4.518918
v -3.468980 8.067737 4.518918
v -3.468980 1.090070 4.518918
v -3.468980 1.090070 4.158518
v 4.238356 1.090070 -3.548819
v 4.238356 1.090070 3.428848
v 4.598756 1.090070 3.428848
v 4.598756 1.090070 3.428848
v 4.598756 1.090070 -3.548819
v 4.238356 1.090070 -3.548819
v 4.238356 8.067737 -3.548819
v 4.238356 1.090070 -3.548819
v 4.598756 1.090070 -3.548819
v 4.598756 1.090070 -3.548819
v 4.598756 8.067737 -3.548819
v 4.238356 8.067737 -3.548819
v 4.238356 8.067737 3.428848
v 4.238356 8.067737 -3.548819
v 4.598756 8.067737 -3.548819
v 4.598756 8.067737 -3.548819
v 4.598756 8.067737 3.428848
v 4.238356 8.067737 3.428848
v 4.238356 1.090070 3.428848
v 4.238356 8.067737 3.428848
v 4.598756 8.067737 3.428848
v 4.598756 8.067737 3.428848
v 4.598756 1.090070 3.428848
v 4.238356 1.090070 3.428848
v -3.468980 1.090070 -4.278489
v 3.508686 1.090070 -4.278489
v 3.508686 1.090070 -4.638889
v 3.508686 1.090070 -4.638889
v -3.468980 1.090070 -4.638889
v -3.468980 1.090070 -4.278489
v -3.468980 8.067737 -4.278489
v -3.468980 1.090070 -4.278489
v -3.468980 1.090070 -4.638889
v -3.468980 1.090070 -4.638889
v -3.468980 8.067737 -4.638889
v -3.468980 8.067737 -4.278489
v 3.508686 8.067737 -4.278489
v -3.468980 8.067737 -4.278489
v -3.468980 8.067737 -4.638889
v -3.468980 8.067737 -4.638889
v 3.508686 8.067737 -4.638889
v 3.508686 8.067737 -4.278489
v 3.508686 1.090070 -4.278489
v 3.508686 8.067737 -4.278489
v 3.508686 8.067737 -4.638889
v 3.508686 8.067737 -4.638889
v 3.508686 1.090070 -4.638889
v 3.508686 1.090070 -4.278489
v -4.198651 1.090070 3.428848
v -4.198651 1.090070 -3.548819
v -4.559051 1.090070 -3.548819
v -4.559051 1.090070 -3.548819
v -4.559051 1.090070 3.428848
v -4.198651 1.090070 3.428848
v -4.198651 8.067737 3.428848
v -4.198651 1.090070 3.428848
v -4.559051 1.090070 3.428848
v -4.559051 1.090070 3.428848
v -4.559051 8.067737 3.428848
v -4.198651 8.067737 3.428848
v -4.198651 8.067737 -3.548819
v -4.198651 8.067737 3.428848
v -4.559051 8.067737 3.428848
v -4.559051 8.067737 3.428848
v -4.559051 8.067737 -3.548819
v -4.198651 8.067737 -3.548819
v -4.198651 1.090070 -3.548819
v -4.198651 8.067737 -3.548819
v -4.559051 8.067737 -3.548819
v -4.559051 8.067737 -3.548819
v -4.559051 1.090070 -3.548819
v -4.198651 1.090070 -3.548819
v -3.153070 0.060634 4.063143
v 4.131808 0.060634 -3.111638
v 4.131808 0.060634 -3.111638
v 3.226601 0.060634 -4.030735
v -4.058278 0.060634 3.144046
v -4.058278 0.060634 3.144046
v -4.467777 8.561622 -3.111639
v -4.467777 1.276743 4.063144
v -4.467777 8.561622 -3.111639
v -4.467777 0.371536 3.144047
v -4.467777 7.656414 -4.030736
v -4.467777 0.371536 3.144047
v -3.052524 8.561622 4.414125
v 4.122260 1.276743 4.414124
v -3.052524 8.561622 4.414125
v 3.203162 0.371536 4.414124
v -3.971621 7.656414 4.414125
v 3.203162 0.371536 4.414124
v 3.033920 8.590939 -4.532849
v -4.140863 1.306061 -4.532848
v 3.033920 8.590939 -4.532849
v -3.221766 0.400854 -4.532848
v 3.953017 7.685731 -4.532850
v -3.221766 0.400854 -4.532848
v 4.449174 8.590939 2.992915
v 4.449173 1.306061 -4.181869
v 4.449174 8.590939 2.992915
v 4.449173 0.400854 -3.262772
v 4.449174 7.685731 3.912012
v 4.449173 0.400854 -3.262772
v 3.226602 9.014871 4.063143
v -4.058278 9.014871 -3.111637
v -4.058278 9.014871 -3.111637
v -3.153071 9.014871 -4.030735
v 4.131808 9.014871 3.144046
v 4.131808 9.014871 3.144046
vt 0.119412 0.880587
vt 0.119413 0.119412
vt 0.880588 0.119413
vt 0.880587 0.880588
vt 0.880588 0.880587
vt 0.119413 0.880588
vt 0.119412 0.119413
vt 0.880587 0.119412
vt 0.119412 0.880588
vt 0.119412 0.119412
vt 0.999501 0.000500
vt 0.999500 0.999501
vt 0.000500 0.999500
vt 0.000500 0.000500
vt 0.999500 0.000500
vt 0.999501 0.999500
vt 0.000500 0.999501
vt 0.999500 0.999500
vt 0.880588 0.039815
vt 0.119413 0.039815
vt 0.119413 0.000500
vt 0.880588 0.000500
vt 0.119413 0.960185
vt 0.880588 0.960185
vt 0.880588 0.999500
vt 0.119413 0.999500
vt 0.880587 0.039815
vt 0.119412 0.039815
vt 0.119412 0.000500
vt 0.880587 0.000500
vt 0.960185 0.880588
vt 0.960185 0.119412
vt 0.999500 0.119412
vt 0.999500 0.880588
vt 0.039815 0.119412
vt 0.039815 0.880588
vt 0.000500 0.880588
vt 0.000500 0.119412
vt 0.960185 0.880587
vt 0.999500 0.880587
vt 0.039815 0.880587
vt 0.000500 0.880587
vt 0.119412 0.960185
vt 0.880587 0.960185
vt 0.880587 0.999500
vt 0.119412 0.999500
vt 0.039815 0.119413
vt 0.000500 0.119413
vt 0.960185 0.119413
vt 0.999500 0.119413
vt 0.782891 0.123525
vt 0.126006 0.779269
vt 0.218604 0.873136
vt 0.877005 0.219238
vt 0.050848 0.110525
vt 0.095000 0.110525
vt 0.095000 1.000000
vt 0.050848 1.000000
vt 0.050848 0.889475
vt 0.095000 0.889475
vt 0.095000 -0.000000
vt 0.050848 -0.000000
vn 0.000000 -1.000000 0.000000
vn -0.000000 1.000000 0.000000
vn 0.000000 0.000000 1.000000
vn 1.000000 -0.000000 0.000000
vn 0.000000 0.000000 -1.000000
vn -1.000000 0.000000 0.000000
vn 0.701702 -0.000000 0.712470
vn -0.701702 0.000000 -0.712470
vn 0.000000 0.701703 0.712470
vn -0.000000 -0.701703 -0.712470
vn 0.712470 0.701703 -0.000000
vn -0.712470 -0.701703 0.000000
vn -0.712470 0.701703 0.000000
vn 0.712470 -0.701703 0.000000
vn 0.000000 0.701703 -0.712470
vn 0.000000 -0.701703 0.712470
vn -0.701702 0.000000 0.712470
vn 0.701702 0.000000 -0.712470
g Box01_Box01_01_-_Default
usemtl 01_-_Default
s off
f 35/1/1 36/2/1 33/3/1
f 33/3/1 34/4/1 35/1/1
f 39/5/2 40/6/2 37/7/2
f 37/7/2 38/8/2 39/5/2
f 43/4/3 44/9/3 41/10/3
f 41/10/3 42/8/3 43/4/3
f 47/4/4 48/9/4 45/10/4
f 45/10/4 46/8/4 47/4/4
f 51/4/5 52/9/5 49/10/5
f 49/10/5 50/8/5 51/4/5
f 55/4/6 56/9/6 53/10/6
f 53/10/6 54/8/6 55/4/6
f 1/11/1 10/4/1 9/3/1
f 1/11/1 3/12/1 10/4/1
f 11/1/1 10/4/1 3/12/1
f 3/12/1 4/13/1 11/1/1
f 12/2/1 11/1/1 4/13/1
f 4/13/1 2/14/1 12/2/1
f 9/3/1 12/2/1 2/14/1
f 2/14/1 1/11/1 9/3/1
f 14/8/2 13/7/2 5/14/2
f 5/14/2 6/15/2 14/8/2
f 15/5/2 14/8/2 6/15/2
f 6/15/2 8/16/2 15/5/2
f 16/6/2 15/5/2 8/16/2
f 8/16/2 7/17/2 16/6/2
f 13/7/2 16/6/2 7/17/2
f 7/17/2 5/14/2 13/7/2
f 18/8/3 17/10/3 105/14/3
f 106/14/3 107/15/3 18/8/3
f 19/4/3 18/8/3 108/15/3
f 109/15/3 110/18/3 19/4/3
f 20/9/3 19/4/3 111/18/3
f 112/18/3 113/13/3 20/9/3
f 17/10/3 20/9/3 114/13/3
f 115/13/3 116/14/3 17/10/3
f 22/8/4 21/10/4 117/14/4
f 118/14/4 119/15/4 22/8/4
f 23/4/4 22/8/4 120/15/4
f 121/15/4 122/18/4 23/4/4
f 24/9/4 23/4/4 123/18/4
f 124/18/4 125/13/4 24/9/4
f 21/10/4 24/9/4 126/13/4
f 127/13/4 128/14/4 21/10/4
f 26/8/5 25/10/5 129/14/5
f 130/14/5 131/15/5 26/8/5
f 27/4/5 26/8/5 132/15/5
f 133/15/5 134/18/5 27/4/5
f 28/9/5 27/4/5 135/18/5
f 136/18/5 137/13/5 28/9/5
f 25/10/5 28/9/5 138/13/5
f 139/13/5 140/14/5 25/10/5
f 30/8/6 29/10/6 141/14/6
f 142/14/6 143/15/6 30/8/6
f 31/4/6 30/8/6 144/15/6
f 145/15/6 146/18/6 31/4/6
f 32/9/6 31/4/6 147/18/6
f 148/18/6 149/13/6 32/9/6
f 29/10/6 32/9/6 150/13/6
f 151/13/6 152/14/6 29/10/6
f 153/19/4 154/20/4 155/21/4
f 156/21/4 157/22/4 158/19/4
f 159/19/3 160/20/3 161/21/3
f 162/21/3 163/22/3 164/19/3
f 165/19/6 166/20/6 167/21/6
f 168/21/6 169/22/6 170/19/6
f 171/19/5 172/20/5 173/21/5
f 174/21/5 175/22/5 176/19/5
f 177/23/5 178/24/5 179/25/5
f 180/25/5 181/26/5 182/23/5
f 183/23/6 184/24/6 185/25/6
f 186/25/6 187/26/6 188/23/6
f 189/23/3 190/24/3 191/25/3
f 192/25/3 193/26/3 194/23/3
f 195/23/4 196/24/4 197/25/4
f 198/25/4 199/26/4 200/23/4
f 201/27/2 202/28/2 203/29/2
f 204/29/2 205/30/2 206/27/2
f 207/31/6 208/32/6 209/33/6
f 210/33/6 211/34/6 212/31/6
f 213/19/1 214/20/1 215/21/1
f 216/21/1 217/22/1 218/19/1
f 219/35/4 220/36/4 221/37/4
f 222/37/4 223/38/4 224/35/4
f 225/39/2 226/32/2 227/33/2
f 228/33/2 229/40/2 230/39/2
f 231/31/3 232/32/3 233/33/3
f 234/33/3 235/34/3 236/31/3
f 237/35/1 238/41/1 239/42/1
f 240/42/1 241/38/1 242/35/1
f 243/35/5 244/36/5 245/37/5
f 246/37/5 247/38/5 248/35/5
f 249/23/2 250/24/2 251/25/2
f 252/25/2 253/26/2 254/23/2
f 255/31/4 256/32/4 257/33/4
f 258/33/4 259/34/4 260/31/4
f 261/43/1 262/44/1 263/45/1
f 264/45/1 265/46/1 266/43/1
f 267/35/6 268/36/6 269/37/6
f 270/37/6 271/38/6 272/35/6
f 273/47/2 274/36/2 275/37/2
f 276/37/2 277/48/2 278/47/2
f 279/31/5 280/32/5 281/33/5
f 282/33/5 283/34/5 284/31/5
f 285/31/1 286/49/1 287/50/1
f 288/50/1 289/34/1 290/31/1
f 291/35/3 292/36/3 293/37/3
f 294/37/3 295/38/3 296/35/3
f 61/51/1 63/52/1 64/53/1
f 64/53/1 62/54/1 61/51/1
f 58/55/7 297/56/7 298/57/7
f 299/57/7 60/58/7 58/55/7
f 59/59/8 300/60/8 301/61/8
f 302/61/8 57/62/8 59/59/8
f 72/53/6 71/52/6 69/51/6
f 69/51/6 70/54/6 72/53/6
f 303/57/9 304/56/9 66/55/9
f 66/55/9 68/58/9 305/57/9
f 306/61/10 307/60/10 67/59/10
f 67/59/10 65/62/10 308/61/10
f 80/53/3 79/52/3 77/51/3
f 77/51/3 78/54/3 80/53/3
f 309/57/11 310/56/11 74/55/11
f 74/55/11 76/58/11 311/57/11
f 312/61/12 313/60/12 75/59/12
f 75/59/12 73/62/12 314/61/12
f 88/53/5 87/52/5 85/51/5
f 85/51/5 86/54/5 88/53/5
f 315/57/13 316/56/13 82/55/13
f 82/55/13 84/58/13 317/57/13
f 318/61/14 319/60/14 83/59/14
f 83/59/14 81/62/14 320/61/14
f 96/53/4 95/52/4 93/51/4
f 93/51/4 94/54/4 96/53/4
f 321/57/15 322/56/15 90/55/15
f 90/55/15 92/58/15 323/57/15
f 324/61/16 325/60/16 91/59/16
f 91/59/16 89/62/16 326/61/16
f 101/51/2 103/52/2 104/53/2
f 104/53/2 102/54/2 101/51/2
f 98/55/17 327/56/17 328/57/17
f 329/57/17 100/58/17 98/55/17
f 99/59/18 330/60/18 331/61/18
f 332/61/18 97/62/18 99/59/18
